<svg width="32" height="32" viewBox="0 0 32 32" fill="none" xmlns="http://www.w3.org/2000/svg">
<path d="M10.667 17.3334H21.3336V14.6667H10.667V17.3334ZM10.667 21.3334H21.3336V18.6667H10.667V21.3334ZM10.667 25.3334H17.3336V22.6667H10.667V25.3334ZM8.00028 29.3334C7.26695 29.3334 6.6394 29.0725 6.11762 28.5507C5.59584 28.0289 5.33451 27.4009 5.33362 26.6667V5.33335C5.33362 4.60002 5.59495 3.97246 6.11762 3.45069C6.64028 2.92891 7.26784 2.66758 8.00028 2.66669H18.667L26.667 10.6667V26.6667C26.667 27.4 26.4061 28.028 25.8843 28.5507C25.3625 29.0734 24.7345 29.3342 24.0003 29.3334H8.00028ZM17.3336 12V5.33335H8.00028V26.6667H24.0003V12H17.3336Z" fill="#98A2B3"/>
</svg>
