<svg width="64" height="64" viewBox="0 0 64 64" fill="none" xmlns="http://www.w3.org/2000/svg">
<path d="M52.0901 35.3936C35.0299 18.0896 39.1033 0.36322 39.1033 0.36322C11.0988 23.0048 23.8281 39.8816 23.8281 39.8816C14.9147 33.0464 20.2639 21.296 20.2639 21.296C2.69458 40.496 5.33198 52.736 12.449 60.2C12.1343 56.3264 13.8907 51.5648 19.2112 45.752C19.2112 45.752 19.0224 56.0048 27.215 57.2432C27.215 57.2432 19.7605 47.3648 36.157 34.112C36.157 34.112 33.7713 44.4896 43.7602 54.6176C46.7981 57.6992 47.1242 60.8048 46.1173 63.6368C54.1497 56.9024 62.6168 46.0688 52.0901 35.3936Z" fill="#FF9601"/>
</svg>
