<svg width="40" height="40" viewBox="0 0 40 40" fill="none" xmlns="http://www.w3.org/2000/svg">
<path d="M6.41662 14.3667C6.17336 13.2709 6.21071 12.1314 6.52522 11.0539C6.83972 9.97639 7.4212 8.99574 8.21574 8.20287C9.01027 7.41 9.99214 6.83057 11.0703 6.51832C12.1485 6.20607 13.288 6.17111 14.3833 6.41667C14.9861 5.47384 15.8166 4.69793 16.7982 4.16048C17.7798 3.62302 18.8809 3.34131 20 3.34131C21.119 3.34131 22.2201 3.62302 23.2017 4.16048C24.1833 4.69793 25.0138 5.47384 25.6166 6.41667C26.7136 6.17004 27.8551 6.20485 28.935 6.51786C30.0148 6.83086 30.998 7.4119 31.793 8.20692C32.5881 9.00194 33.1691 9.98512 33.4821 11.065C33.7951 12.1449 33.8299 13.2864 33.5833 14.3833C34.5261 14.9862 35.302 15.8167 35.8395 16.7983C36.3769 17.7798 36.6586 18.8809 36.6586 20C36.6586 21.1191 36.3769 22.2202 35.8395 23.2017C35.302 24.1833 34.5261 25.0138 33.5833 25.6167C33.8288 26.7119 33.7939 27.8515 33.4816 28.9297C33.1694 30.0078 32.59 30.9897 31.7971 31.7842C31.0042 32.5788 30.0236 33.1602 28.9461 33.4747C27.8685 33.7892 26.7291 33.8266 25.6333 33.5833C25.0312 34.5298 24.2001 35.309 23.2168 35.8489C22.2336 36.3887 21.13 36.6718 20.0083 36.6718C18.8866 36.6718 17.783 36.3887 16.7997 35.8489C15.8165 35.309 14.9854 34.5298 14.3833 33.5833C13.288 33.8289 12.1485 33.7939 11.0703 33.4817C9.99214 33.1694 9.01027 32.59 8.21574 31.7971C7.4212 31.0043 6.83972 30.0236 6.52522 28.9461C6.21071 27.8686 6.17336 26.7291 6.41662 25.6333C5.46655 25.0321 4.68398 24.2003 4.1417 23.2154C3.59943 22.2304 3.31506 21.1243 3.31506 20C3.31506 18.8757 3.59943 17.7696 4.1417 16.7846C4.68398 15.7997 5.46655 14.9679 6.41662 14.3667Z" fill="#FFE628"/>
<circle cx="19.9999" cy="20" r="10.6667" stroke="#E5B619" stroke-width="2"/>
<path d="M19.9999 12.5065L21.6838 17.6889H27.1329L22.7245 20.8918L24.4083 26.0742L19.9999 22.8713L15.5915 26.0742L17.2754 20.8918L12.867 17.6889H18.3161L19.9999 12.5065Z" fill="#E6B919"/>
</svg>
