<svg width="41" height="40" viewBox="0 0 41 40" fill="none" xmlns="http://www.w3.org/2000/svg">
<path d="M7.08325 14.3667C6.83998 13.2709 6.87734 12.1314 7.19184 11.0539C7.50635 9.97639 8.08783 8.99574 8.88236 8.20287C9.6769 7.41 10.6588 6.83057 11.7369 6.51832C12.8151 6.20607 13.9546 6.17111 15.0499 6.41667C15.6528 5.47384 16.4833 4.69793 17.4648 4.16048C18.4464 3.62302 19.5475 3.34131 20.6666 3.34131C21.7857 3.34131 22.8867 3.62302 23.8683 4.16048C24.8499 4.69793 25.6804 5.47384 26.2832 6.41667C27.3802 6.17004 28.5217 6.20485 29.6016 6.51786C30.6815 6.83086 31.6646 7.4119 32.4597 8.20692C33.2547 9.00194 33.8357 9.98512 34.1487 11.065C34.4617 12.1449 34.4965 13.2864 34.2499 14.3833C35.1927 14.9862 35.9686 15.8167 36.5061 16.7983C37.0436 17.7798 37.3253 18.8809 37.3253 20C37.3253 21.1191 37.0436 22.2202 36.5061 23.2017C35.9686 24.1833 35.1927 25.0138 34.2499 25.6167C34.4955 26.7119 34.4605 27.8515 34.1483 28.9297C33.836 30.0078 33.2566 30.9897 32.4637 31.7842C31.6708 32.5788 30.6902 33.1602 29.6127 33.4747C28.5352 33.7892 27.3957 33.8266 26.2999 33.5833C25.6979 34.5298 24.8667 35.309 23.8835 35.8489C22.9002 36.3887 21.7966 36.6718 20.6749 36.6718C19.5532 36.6718 18.4496 36.3887 17.4664 35.8489C16.4831 35.309 15.652 34.5298 15.0499 33.5833C13.9546 33.8289 12.8151 33.7939 11.7369 33.4817C10.6588 33.1694 9.6769 32.59 8.88236 31.7971C8.08783 31.0043 7.50635 30.0236 7.19184 28.9461C6.87734 27.8686 6.83998 26.7291 7.08325 25.6333C6.13318 25.0321 5.3506 24.2003 4.80833 23.2154C4.26605 22.2304 3.98169 21.1243 3.98169 20C3.98169 18.8757 4.26605 17.7696 4.80833 16.7846C5.3506 15.7997 6.13318 14.9679 7.08325 14.3667Z" fill="#E37C2E"/>
<circle cx="20.6665" cy="20" r="10.6667" stroke="#F0C2A0" stroke-width="2"/>
<path d="M20.6666 12.5065L22.3504 17.6889H27.7995L23.3911 20.8918L25.075 26.0742L20.6666 22.8713L16.2582 26.0742L17.942 20.8918L13.5336 17.6889H18.9827L20.6666 12.5065Z" fill="#F0C2A0"/>
</svg>
