<svg width="41" height="40" viewBox="0 0 41 40" fill="none" xmlns="http://www.w3.org/2000/svg">
<path d="M6.75 14.3667C6.50673 13.2709 6.54408 12.1314 6.85859 11.0539C7.1731 9.97639 7.75458 8.99574 8.54911 8.20287C9.34364 7.41 10.3255 6.83057 11.4037 6.51832C12.4818 6.20607 13.6214 6.17111 14.7167 6.41667C15.3195 5.47384 16.15 4.69793 17.1316 4.16048C18.1132 3.62302 19.2142 3.34131 20.3333 3.34131C21.4524 3.34131 22.5535 3.62302 23.5351 4.16048C24.5167 4.69793 25.3471 5.47384 25.95 6.41667C27.0469 6.17004 28.1884 6.20485 29.2683 6.51786C30.3482 6.83086 31.3314 7.4119 32.1264 8.20692C32.9214 9.00194 33.5025 9.98512 33.8155 11.065C34.1285 12.1449 34.1633 13.2864 33.9167 14.3833C34.8595 14.9862 35.6354 15.8167 36.1729 16.7983C36.7103 17.7798 36.992 18.8809 36.992 20C36.992 21.1191 36.7103 22.2202 36.1729 23.2017C35.6354 24.1833 34.8595 25.0138 33.9167 25.6167C34.1622 26.7119 34.1273 27.8515 33.815 28.9297C33.5028 30.0078 32.9233 30.9897 32.1305 31.7842C31.3376 32.5788 30.3569 33.1602 29.2794 33.4747C28.2019 33.7892 27.0625 33.8266 25.9667 33.5833C25.3646 34.5298 24.5335 35.309 23.5502 35.8489C22.5669 36.3887 21.4634 36.6718 20.3417 36.6718C19.22 36.6718 18.1164 36.3887 17.1331 35.8489C16.1499 35.309 15.3187 34.5298 14.7167 33.5833C13.6214 33.8289 12.4818 33.7939 11.4037 33.4817C10.3255 33.1694 9.34364 32.59 8.54911 31.7971C7.75458 31.0043 7.1731 30.0236 6.85859 28.9461C6.54408 27.8686 6.50673 26.7291 6.75 25.6333C5.79992 25.0321 5.01735 24.2003 4.47508 23.2154C3.9328 22.2304 3.64844 21.1243 3.64844 20C3.64844 18.8757 3.9328 17.7696 4.47508 16.7846C5.01735 15.7997 5.79992 14.9679 6.75 14.3667Z" fill="#BEBEBE"/>
<circle cx="20.3334" cy="20" r="10.6667" stroke="white" stroke-width="2"/>
<path d="M20.3334 12.5065L22.0172 17.6889H27.4663L23.0579 20.8918L24.7418 26.0742L20.3334 22.8713L15.925 26.0742L17.6088 20.8918L13.2004 17.6889H18.6495L20.3334 12.5065Z" fill="white"/>
</svg>
