<svg width="28" height="27" viewBox="0 0 28 27" fill="none" xmlns="http://www.w3.org/2000/svg">
<path fill-rule="evenodd" clip-rule="evenodd" d="M27.12 3.07467C27.1782 2.72176 27.1407 2.35971 27.0113 2.02625C26.882 1.69278 26.6656 1.4001 26.3847 1.17869C26.1038 0.957289 25.7686 0.815267 25.4142 0.767425C25.0597 0.719582 24.6989 0.767668 24.3694 0.906674L1.56937 10.5067C-0.0199635 11.176 -0.101297 13.4747 1.56937 14.168C3.22388 14.8574 4.90227 15.488 6.60137 16.0587C8.1587 16.5733 9.85737 17.0493 11.2187 17.184C11.5907 17.6293 12.0587 18.0587 12.536 18.4507C13.2654 19.0507 14.1427 19.668 15.0494 20.26C16.8654 21.4467 18.88 22.5813 20.2374 23.32C21.86 24.2 23.8027 23.1867 24.0934 21.4173L27.12 3.07467ZM4.12537 12.324L24.2907 3.83334L21.4667 20.9533C20.1347 20.2293 18.216 19.1453 16.5067 18.028C15.7189 17.5222 14.9583 16.9752 14.228 16.3893C14.0329 16.2299 13.8434 16.0636 13.66 15.8907L18.9414 10.6107C19.1916 10.3607 19.3322 10.0215 19.3323 9.66781C19.3324 9.31412 19.192 8.97486 18.942 8.72467C18.692 8.47449 18.3529 8.33386 17.9992 8.33374C17.6455 8.33361 17.3062 8.474 17.056 8.72401L11.2734 14.5067C10.2947 14.3813 8.93204 14.0187 7.43604 13.5253C6.32232 13.1543 5.21881 12.7532 4.1267 12.3227L4.12537 12.324Z" fill="#98A2B3"/>
</svg>
